# xmcd CD database file
#
# Track frame offsets:
#	150
#	17191
#	39094
#	60945
#	82484
#	98147
#	120076
#	141355
#	163229
#	185798
#	204933
#	223921
#	244459
#	266625
#	287709
#	310574
#	328588
#
# Disc length: 4670 seconds
#
# Revision: 0
# Processed by: cddbd v1.5PL3 Copyright (c) Steve Scherf et al.
# Submitted via: CDex 1.50
#
DISCID=fa123c11
DTITLE=Rey Ruiz - Recopilacion
DYEAR=2004
DGENRE=Salsa
TTITLE0=Mintiendo
TTITLE1=Estamos Solos
TTITLE2=El Rey Del Mundo
TTITLE3=Si Te Preguntan
TTITLE4=Piano
TTITLE5=Ella
TTITLE6=Aquí Estoy Yo
TTITLE7=Duele Tanto
TTITLE8=El hombre de tu vida
TTITLE9=Es dificil de explicar
TTITLE10=Lo que siento por ti
TTITLE11=Porque es amor
TTITLE12=Porque Te Vas
TTITLE13=Quien lo diria
TTITLE14=Sera lo que sera
TTITLE15=Tu No Sabes
TTITLE16=Vuelve de nuevo conmigo
EXTD=YEAR: 2004
EXTT0=
EXTT1=
EXTT2=
EXTT3=
EXTT4=
EXTT5=
EXTT6=
EXTT7=
EXTT8=
EXTT9=
EXTT10=
EXTT11=
EXTT12=
EXTT13=
EXTT14=
EXTT15=
EXTT16=
PLAYORDER=
